<svg width="32" height="32" viewBox="0 0 32 32" fill="none" xmlns="http://www.w3.org/2000/svg">
<g clip-path="url(#clip0_156_2632)">
<path d="M8 22.6667C8 24.1394 9.19391 25.3333 10.6667 25.3333C12.1394 25.3333 13.3333 24.1394 13.3333 22.6667V9.33332C13.3333 7.86056 12.1394 6.66666 10.6667 6.66666C9.19391 6.66666 8 7.86056 8 9.33332V22.6667ZM21.3333 6.66666C19.8606 6.66666 18.6667 7.86056 18.6667 9.33332V22.6667C18.6667 24.1394 19.8606 25.3333 21.3333 25.3333C22.8061 25.3333 24 24.1394 24 22.6667V9.33332C24 7.86056 22.8061 6.66666 21.3333 6.66666Z" fill="white"/>
</g>
<defs>
<clipPath id="clip0_156_2632">
<rect width="32" height="32" fill="white"/>
</clipPath>
</defs>
</svg>
